<?xml version="1.0" encoding="UTF-8" standalone="no"?><svg xmlns="http://www.w3.org/2000/svg" xmlns:xlink="http://www.w3.org/1999/xlink" contentScriptType="application/ecmascript" contentStyleType="text/css" height="431px" preserveAspectRatio="none" style="width:916px;height:431px;" version="1.1" viewBox="0 0 916 431" width="916px" zoomAndPan="magnify"><defs><filter height="300%" id="flt6ho1z8bw8b" width="300%" x="-1" y="-1"><feGaussianBlur result="blurOut" stdDeviation="2.0"/><feColorMatrix in="blurOut" result="blurOut2" type="matrix" values="0 0 0 0 0 0 0 0 0 0 0 0 0 0 0 0 0 0 .4 0"/><feOffset dx="4.0" dy="4.0" in="blurOut2" result="blurOut3"/><feBlend in="SourceGraphic" in2="blurOut3" mode="normal"/></filter></defs><g><text fill="#000000" font-family="sans-serif" font-size="18" lengthAdjust="spacingAndGlyphs" textLength="198" x="356.75" y="28.708">Add Token Success Flow</text><line style="stroke:#A80036;stroke-width:1.0;stroke-dasharray:5.0,5.0;" x1="52" x2="52" y1="123.25" y2="347.1797"/><line style="stroke:#A80036;stroke-width:1.0;stroke-dasharray:5.0,5.0;" x1="231.5" x2="231.5" y1="123.25" y2="347.1797"/><line style="stroke:#A80036;stroke-width:1.0;stroke-dasharray:5.0,5.0;" x1="410.5" x2="410.5" y1="123.25" y2="347.1797"/><line style="stroke:#A80036;stroke-width:1.0;stroke-dasharray:5.0,5.0;" x1="589" x2="589" y1="123.25" y2="347.1797"/><line style="stroke:#A80036;stroke-width:1.0;stroke-dasharray:5.0,5.0;" x1="681" x2="681" y1="123.25" y2="347.1797"/><line style="stroke:#A80036;stroke-width:1.0;stroke-dasharray:5.0,5.0;" x1="765" x2="765" y1="123.25" y2="347.1797"/><line style="stroke:#A80036;stroke-width:1.0;stroke-dasharray:5.0,5.0;" x1="874.5" x2="874.5" y1="123.25" y2="347.1797"/><text fill="#000000" font-family="sans-serif" font-size="14" lengthAdjust="spacingAndGlyphs" textLength="89" x="5" y="119.9482">TelegramUser</text><ellipse cx="52.5" cy="49.9531" fill="#FEFECE" filter="url(#flt6ho1z8bw8b)" rx="8" ry="8" style="stroke:#A80036;stroke-width:2.0;"/><path d="M52.5,57.9531 L52.5,84.9531 M39.5,65.9531 L65.5,65.9531 M52.5,84.9531 L39.5,99.9531 M52.5,84.9531 L65.5,99.9531 " fill="none" filter="url(#flt6ho1z8bw8b)" style="stroke:#A80036;stroke-width:2.0;"/><text fill="#000000" font-family="sans-serif" font-size="14" lengthAdjust="spacingAndGlyphs" textLength="89" x="5" y="359.1748">TelegramUser</text><ellipse cx="52.5" cy="372.4766" fill="#FEFECE" filter="url(#flt6ho1z8bw8b)" rx="8" ry="8" style="stroke:#A80036;stroke-width:2.0;"/><path d="M52.5,380.4766 L52.5,407.4766 M39.5,388.4766 L65.5,388.4766 M52.5,407.4766 L39.5,422.4766 M52.5,407.4766 L65.5,422.4766 " fill="none" filter="url(#flt6ho1z8bw8b)" style="stroke:#A80036;stroke-width:2.0;"/><rect fill="#FEFECE" filter="url(#flt6ho1z8bw8b)" height="30.2969" style="stroke:#A80036;stroke-width:1.5;" width="36" x="211.5" y="87.9531"/><text fill="#000000" font-family="sans-serif" font-size="14" lengthAdjust="spacingAndGlyphs" textLength="22" x="218.5" y="107.9482">Bot</text><rect fill="#FEFECE" filter="url(#flt6ho1z8bw8b)" height="30.2969" style="stroke:#A80036;stroke-width:1.5;" width="36" x="211.5" y="346.1797"/><text fill="#000000" font-family="sans-serif" font-size="14" lengthAdjust="spacingAndGlyphs" textLength="22" x="218.5" y="366.1748">Bot</text><rect fill="#FEFECE" filter="url(#flt6ho1z8bw8b)" height="30.2969" style="stroke:#A80036;stroke-width:1.5;" width="40" x="388.5" y="87.9531"/><text fill="#000000" font-family="sans-serif" font-size="14" lengthAdjust="spacingAndGlyphs" textLength="26" x="395.5" y="107.9482">Hub</text><rect fill="#FEFECE" filter="url(#flt6ho1z8bw8b)" height="30.2969" style="stroke:#A80036;stroke-width:1.5;" width="40" x="388.5" y="346.1797"/><text fill="#000000" font-family="sans-serif" font-size="14" lengthAdjust="spacingAndGlyphs" textLength="26" x="395.5" y="366.1748">Hub</text><text fill="#000000" font-family="sans-serif" font-size="14" lengthAdjust="spacingAndGlyphs" textLength="59" x="557" y="119.9482">Database</text><path d="M571.5,70.9531 C571.5,60.9531 589.5,60.9531 589.5,60.9531 C589.5,60.9531 607.5,60.9531 607.5,70.9531 L607.5,96.9531 C607.5,106.9531 589.5,106.9531 589.5,106.9531 C589.5,106.9531 571.5,106.9531 571.5,96.9531 L571.5,70.9531 " fill="#FEFECE" filter="url(#flt6ho1z8bw8b)" style="stroke:#000000;stroke-width:1.5;"/><path d="M571.5,70.9531 C571.5,80.9531 589.5,80.9531 589.5,80.9531 C589.5,80.9531 607.5,80.9531 607.5,70.9531 " fill="none" style="stroke:#000000;stroke-width:1.5;"/><text fill="#000000" font-family="sans-serif" font-size="14" lengthAdjust="spacingAndGlyphs" textLength="59" x="557" y="359.1748">Database</text><path d="M571.5,372.4766 C571.5,362.4766 589.5,362.4766 589.5,362.4766 C589.5,362.4766 607.5,362.4766 607.5,372.4766 L607.5,398.4766 C607.5,408.4766 589.5,408.4766 589.5,408.4766 C589.5,408.4766 571.5,408.4766 571.5,398.4766 L571.5,372.4766 " fill="#FEFECE" filter="url(#flt6ho1z8bw8b)" style="stroke:#000000;stroke-width:1.5;"/><path d="M571.5,372.4766 C571.5,382.4766 589.5,382.4766 589.5,382.4766 C589.5,382.4766 607.5,382.4766 607.5,372.4766 " fill="none" style="stroke:#000000;stroke-width:1.5;"/><rect fill="#FEFECE" filter="url(#flt6ho1z8bw8b)" height="30.2969" style="stroke:#A80036;stroke-width:1.5;" width="95" x="632" y="87.9531"/><text fill="#000000" font-family="sans-serif" font-size="14" lengthAdjust="spacingAndGlyphs" textLength="81" x="639" y="107.9482">Notifications</text><rect fill="#FEFECE" filter="url(#flt6ho1z8bw8b)" height="30.2969" style="stroke:#A80036;stroke-width:1.5;" width="95" x="632" y="346.1797"/><text fill="#000000" font-family="sans-serif" font-size="14" lengthAdjust="spacingAndGlyphs" textLength="81" x="639" y="366.1748">Notifications</text><rect fill="#FEFECE" filter="url(#flt6ho1z8bw8b)" height="30.2969" style="stroke:#A80036;stroke-width:1.5;" width="44" x="741" y="87.9531"/><text fill="#000000" font-family="sans-serif" font-size="14" lengthAdjust="spacingAndGlyphs" textLength="30" x="748" y="107.9482">Auth</text><rect fill="#FEFECE" filter="url(#flt6ho1z8bw8b)" height="30.2969" style="stroke:#A80036;stroke-width:1.5;" width="44" x="741" y="346.1797"/><text fill="#000000" font-family="sans-serif" font-size="14" lengthAdjust="spacingAndGlyphs" textLength="30" x="748" y="366.1748">Auth</text><rect fill="#FEFECE" filter="url(#flt6ho1z8bw8b)" height="30.2969" style="stroke:#A80036;stroke-width:1.5;" width="59" x="843.5" y="87.9531"/><text fill="#000000" font-family="sans-serif" font-size="14" lengthAdjust="spacingAndGlyphs" textLength="45" x="850.5" y="107.9482">GitHub</text><rect fill="#FEFECE" filter="url(#flt6ho1z8bw8b)" height="30.2969" style="stroke:#A80036;stroke-width:1.5;" width="59" x="843.5" y="346.1797"/><text fill="#000000" font-family="sans-serif" font-size="14" lengthAdjust="spacingAndGlyphs" textLength="45" x="850.5" y="366.1748">GitHub</text><polygon fill="#A80036" points="219.5,150.3828,229.5,154.3828,219.5,158.3828,223.5,154.3828" style="stroke:#A80036;stroke-width:1.0;"/><line style="stroke:#A80036;stroke-width:1.0;" x1="52.5" x2="225.5" y1="154.3828" y2="154.3828"/><text fill="#000000" font-family="sans-serif" font-size="13" lengthAdjust="spacingAndGlyphs" textLength="155" x="59.5" y="149.3169">Chat ID, Token, TokenAlias</text><polygon fill="#A80036" points="398.5,179.5156,408.5,183.5156,398.5,187.5156,402.5,183.5156" style="stroke:#A80036;stroke-width:1.0;"/><line style="stroke:#A80036;stroke-width:1.0;" x1="231.5" x2="404.5" y1="183.5156" y2="183.5156"/><text fill="#000000" font-family="sans-serif" font-size="13" lengthAdjust="spacingAndGlyphs" textLength="155" x="238.5" y="178.4497">Chat ID, Token, TokenAlias</text><polygon fill="#A80036" points="753,208.6484,763,212.6484,753,216.6484,757,212.6484" style="stroke:#A80036;stroke-width:1.0;"/><line style="stroke:#A80036;stroke-width:1.0;" x1="410.5" x2="759" y1="212.6484" y2="212.6484"/><text fill="#000000" font-family="sans-serif" font-size="13" lengthAdjust="spacingAndGlyphs" textLength="82" x="417.5" y="207.5825">Validate token</text><polygon fill="#A80036" points="863,237.7813,873,241.7813,863,245.7813,867,241.7813" style="stroke:#A80036;stroke-width:1.0;"/><line style="stroke:#A80036;stroke-width:1.0;" x1="765" x2="869" y1="241.7813" y2="241.7813"/><text fill="#000000" font-family="sans-serif" font-size="13" lengthAdjust="spacingAndGlyphs" textLength="64" x="772" y="236.7153">Auth token</text><polygon fill="#A80036" points="776,266.9141,766,270.9141,776,274.9141,772,270.9141" style="stroke:#A80036;stroke-width:1.0;"/><line style="stroke:#A80036;stroke-width:1.0;stroke-dasharray:2.0,2.0;" x1="770" x2="874" y1="270.9141" y2="270.9141"/><text fill="#000000" font-family="sans-serif" font-size="13" lengthAdjust="spacingAndGlyphs" textLength="86" x="782" y="265.8481">Auth response</text><polygon fill="#A80036" points="421.5,296.0469,411.5,300.0469,421.5,304.0469,417.5,300.0469" style="stroke:#A80036;stroke-width:1.0;"/><line style="stroke:#A80036;stroke-width:1.0;stroke-dasharray:2.0,2.0;" x1="415.5" x2="764" y1="300.0469" y2="300.0469"/><text fill="#000000" font-family="sans-serif" font-size="13" lengthAdjust="spacingAndGlyphs" textLength="86" x="427.5" y="294.981">Auth response</text><polygon fill="#A80036" points="577.5,325.1797,587.5,329.1797,577.5,333.1797,581.5,329.1797" style="stroke:#A80036;stroke-width:1.0;"/><line style="stroke:#A80036;stroke-width:1.0;" x1="410.5" x2="583.5" y1="329.1797" y2="329.1797"/><text fill="#000000" font-family="sans-serif" font-size="13" lengthAdjust="spacingAndGlyphs" textLength="155" x="417.5" y="324.1138">Chat ID, Token, TokenAlias</text><!--MD5=[edb2191cd487c885ff3062155a7ec080]
@startuml
title Add Token Success Flow
actor       TelegramUser as user
participant Bot as bot
participant Hub as hub
database    Database    as db
participant Notifications as notifications
participant Auth as auth
participant GitHub as github

user -> bot : Chat ID, Token, TokenAlias
bot -> hub : Chat ID, Token, TokenAlias
hub -> auth: Validate token
auth -> github: Auth token
github - -> auth: Auth response
auth - -> hub: Auth response
hub -> db: Chat ID, Token, TokenAlias
@enduml

PlantUML version 1.2020.23(Sun Dec 13 19:14:58 GMT 2020)
(GPL source distribution)
Java Runtime: OpenJDK Runtime Environment
JVM: OpenJDK 64-Bit Server VM
Default Encoding: UTF-8
Language: en
Country: US
--></g></svg>